<svg width="36" height="36" viewBox="0 0 36 36" fill="none" xmlns="http://www.w3.org/2000/svg">
<g id="open book / 24 / Outline">
<path id="Vector" opacity="0.8" d="M31.7551 3.09006C30.6799 2.90486 29.5912 2.80953 28.5001 2.80506C24.7777 2.80201 21.1329 3.86942 18.0001 5.88006C14.8593 3.89582 11.2151 2.85461 7.50013 2.88006C6.4091 2.88453 5.32033 2.97986 4.24513 3.16506C3.89294 3.22578 3.574 3.41025 3.34575 3.68525C3.1175 3.96025 2.99493 4.30771 3.00013 4.66506V22.6651C2.99691 22.8855 3.04232 23.1039 3.1331 23.3047C3.22389 23.5056 3.35783 23.684 3.52539 23.8272C3.69295 23.9704 3.89001 24.0749 4.10256 24.1333C4.31511 24.1917 4.53791 24.2026 4.75513 24.1651C6.90466 23.7929 9.10693 23.8546 11.2322 24.3467C13.3575 24.8387 15.3629 25.7511 17.1301 27.0301L17.3101 27.1351H17.4751C17.6415 27.2044 17.8199 27.2401 18.0001 27.2401C18.1803 27.2401 18.3588 27.2044 18.5251 27.1351H18.6901L18.8701 27.0301C20.6251 25.7225 22.6246 24.7806 24.7504 24.2601C26.8761 23.7396 29.0846 23.6512 31.2451 24.0001C31.4623 24.0376 31.6851 24.0267 31.8977 23.9683C32.1102 23.9099 32.3073 23.8054 32.4749 23.6622C32.6424 23.519 32.7764 23.3406 32.8672 23.1397C32.9579 22.9389 33.0033 22.7205 33.0001 22.5001V4.50006C32.9845 4.15829 32.8525 3.83213 32.6261 3.57567C32.3996 3.31921 32.0923 3.14787 31.7551 3.09006ZM16.5001 23.0251C13.725 21.5651 10.6359 20.8031 7.50013 20.8051C7.00513 20.8051 6.51013 20.8051 6.00013 20.8051V5.80506C6.49971 5.77627 7.00054 5.77627 7.50013 5.80506C10.7002 5.80152 13.8304 6.7406 16.5001 8.50506V23.0251ZM30.0001 20.8651C29.4901 20.8651 28.9951 20.8651 28.5001 20.8651C25.3643 20.8631 22.2753 21.6251 19.5001 23.0851V8.50506C22.1698 6.7406 25.3 5.80152 28.5001 5.80506C28.9997 5.77627 29.5005 5.77627 30.0001 5.80506V20.8651ZM31.7551 27.0901C30.6799 26.9049 29.5912 26.8095 28.5001 26.8051C24.7777 26.802 21.1329 27.8694 18.0001 29.8801C14.8674 27.8694 11.2226 26.802 7.50013 26.8051C6.4091 26.8095 5.32033 26.9049 4.24513 27.0901C4.04987 27.121 3.86266 27.1903 3.69427 27.2939C3.52588 27.3975 3.37963 27.5334 3.26393 27.6937C3.14822 27.854 3.06536 28.0356 3.02008 28.228C2.97481 28.4205 2.96803 28.62 3.00013 28.8151C3.07635 29.2046 3.30386 29.548 3.63281 29.7701C3.96176 29.9922 4.36534 30.0749 4.75513 30.0001C6.90466 29.6279 9.10693 29.6896 11.2322 30.1817C13.3575 30.6737 15.3629 31.5861 17.1301 32.8651C17.3842 33.0459 17.6883 33.1431 18.0001 33.1431C18.312 33.1431 18.6161 33.0459 18.8701 32.8651C20.6374 31.5861 22.6427 30.6737 24.768 30.1817C26.8933 29.6896 29.0956 29.6279 31.2451 30.0001C31.6349 30.0749 32.0385 29.9922 32.3674 29.7701C32.6964 29.548 32.9239 29.2046 33.0001 28.8151C33.0322 28.62 33.0254 28.4205 32.9802 28.228C32.9349 28.0356 32.852 27.854 32.7363 27.6937C32.6206 27.5334 32.4744 27.3975 32.306 27.2939C32.1376 27.1903 31.9504 27.121 31.7551 27.0901Z" fill="#101130"/>
</g>
</svg>
