<svg width="18" height="17" viewBox="0 0 18 17" fill="none" xmlns="http://www.w3.org/2000/svg">
<g id="Buy">
<path id="Buy_2" fill-rule="evenodd" clip-rule="evenodd" d="M10.7677 8.02743H13.0742C13.424 8.02743 13.6988 7.73829 13.6988 7.38961C13.6988 7.03243 13.424 6.75179 13.0742 6.75179H10.7677C10.418 6.75179 10.1432 7.03243 10.1432 7.38961C10.1432 7.73829 10.418 8.02743 10.7677 8.02743ZM15.8138 3.60604C16.3217 3.60604 16.6548 3.78463 16.9879 4.17582C17.3209 4.56702 17.3792 5.1283 17.3043 5.6377L16.5132 11.2165C16.3633 12.2889 15.464 13.0789 14.4065 13.0789H5.32195C4.21448 13.0789 3.29853 12.2123 3.20693 11.0898L2.44086 1.8193L1.18351 1.59819C0.850435 1.53866 0.617283 1.20699 0.675571 0.866824C0.733859 0.519001 1.05861 0.288536 1.40001 0.340412L3.38596 0.645714C3.66907 0.69759 3.87724 0.934858 3.90222 1.224L4.06043 3.12895C4.08541 3.40194 4.30191 3.60604 4.56837 3.60604H15.8138ZM5.18855 14.423C4.4891 14.423 3.92287 15.0013 3.92287 15.7157C3.92287 16.4215 4.4891 16.9998 5.18855 16.9998C5.87968 16.9998 6.44591 16.4215 6.44591 15.7157C6.44591 15.0013 5.87968 14.423 5.18855 14.423ZM14.5563 14.423C13.8568 14.423 13.2906 15.0013 13.2906 15.7157C13.2906 16.4215 13.8568 16.9998 14.5563 16.9998C15.2474 16.9998 15.8136 16.4215 15.8136 15.7157C15.8136 15.0013 15.2474 14.423 14.5563 14.423Z" fill="#2076FF"/>
</g>
</svg>
