<svg width="20" height="21" viewBox="0 0 20 21" fill="none" xmlns="http://www.w3.org/2000/svg">
<path fill-rule="evenodd" clip-rule="evenodd" d="M13.4653 7.52732C13.4653 9.48538 11.9043 11.0554 9.95756 11.0554C8.01081 11.0554 6.44982 9.48538 6.44982 7.52732C6.44982 5.5685 8.01081 3.99994 9.95756 3.99994C11.9043 3.99994 13.4653 5.5685 13.4653 7.52732ZM9.95757 17.3333C7.09825 17.3333 4.65678 16.88 4.65678 15.0668C4.65678 13.2528 7.08258 12.783 9.95757 12.783C12.8169 12.783 15.2584 13.2363 15.2584 15.0502C15.2584 16.8635 12.8326 17.3333 9.95757 17.3333ZM14.9643 7.59093C14.9643 8.5891 14.6666 9.51898 14.1442 10.292C14.0905 10.3716 14.1383 10.4789 14.233 10.4954C14.3636 10.5179 14.4987 10.5307 14.636 10.5344C16.0052 10.5704 17.2341 9.68409 17.5736 8.34969C18.0766 6.36761 16.5999 4.58816 14.7195 4.58816C14.5151 4.58816 14.3196 4.60992 14.1293 4.64895C14.1032 4.65495 14.0756 4.66696 14.0607 4.69023C14.0428 4.71875 14.0562 4.75702 14.0741 4.78179C14.639 5.57808 14.9643 6.54923 14.9643 7.59093ZM17.2319 11.9271C18.1519 12.108 18.7571 12.4772 19.0078 13.0138C19.2197 13.4544 19.2197 13.9655 19.0078 14.4053C18.6242 15.2376 17.3878 15.5048 16.9073 15.5738C16.8081 15.5888 16.7282 15.5025 16.7387 15.4027C16.9842 13.0964 15.0314 12.0029 14.5263 11.7515C14.5046 11.7402 14.5002 11.723 14.5024 11.7124C14.5039 11.7049 14.5129 11.6929 14.5293 11.6907C15.6224 11.6704 16.7976 11.8205 17.2319 11.9271ZM5.36429 10.5344C5.50159 10.5307 5.6359 10.5186 5.76723 10.4954C5.86199 10.4789 5.90974 10.3715 5.85602 10.292C5.3337 9.51897 5.03598 8.5891 5.03598 7.59092C5.03598 6.54922 5.36131 5.57807 5.92616 4.78178C5.94407 4.75701 5.95675 4.71874 5.93959 4.69022C5.92467 4.6677 5.89631 4.65494 5.87094 4.64894C5.67992 4.60991 5.48443 4.58815 5.27998 4.58815C3.39963 4.58815 1.92296 6.3676 2.42663 8.34968C2.76613 9.68408 3.99507 10.5704 5.36429 10.5344ZM5.49749 11.712C5.49973 11.7232 5.49525 11.7397 5.47436 11.7518C4.96846 12.0032 3.01573 13.0967 3.26122 15.4022C3.27167 15.5028 3.19257 15.5883 3.09333 15.5741C2.6128 15.505 1.3764 15.2379 0.992868 14.4055C0.780209 13.965 0.780209 13.4547 0.992868 13.0141C1.24358 12.4775 1.84798 12.1082 2.768 11.9266C3.20302 11.8208 4.37749 11.6707 5.47137 11.691C5.48779 11.6932 5.496 11.7052 5.49749 11.712Z" fill="#3BB77E"/>
</svg>
