<svg width="128" height="39" viewBox="0 0 128 39" fill="none" xmlns="http://www.w3.org/2000/svg">
<rect y="1" width="38" height="38" rx="19" fill="#3BB77E"/>
<path d="M16.656 10.888C16.928 10.728 17.336 10.576 17.88 10.432C18.44 10.288 19 10.216 19.56 10.216C20.36 10.216 21.064 10.336 21.672 10.576C22.296 10.8 22.696 11.16 22.872 11.656C23.16 12.488 23.472 13.456 23.808 14.56C24.144 15.664 24.48 16.808 24.816 17.992C25.152 19.16 25.48 20.32 25.8 21.472C26.12 22.608 26.4 23.616 26.64 24.496C26.448 24.72 26.16 24.896 25.776 25.024C25.392 25.168 24.936 25.24 24.408 25.24C24.024 25.24 23.696 25.208 23.424 25.144C23.168 25.08 22.952 24.984 22.776 24.856C22.616 24.728 22.48 24.56 22.368 24.352C22.272 24.144 22.184 23.904 22.104 23.632L21.672 21.976H17.328C17.2 22.456 17.072 22.952 16.944 23.464C16.816 23.976 16.688 24.472 16.56 24.952C16.336 25.032 16.096 25.096 15.84 25.144C15.6 25.208 15.304 25.24 14.952 25.24C14.136 25.24 13.528 25.104 13.128 24.832C12.744 24.544 12.552 24.152 12.552 23.656C12.552 23.432 12.584 23.208 12.648 22.984C12.712 22.76 12.784 22.496 12.864 22.192C12.976 21.76 13.128 21.224 13.32 20.584C13.528 19.944 13.752 19.256 13.992 18.52C14.232 17.768 14.488 17 14.76 16.216C15.032 15.432 15.288 14.696 15.528 14.008C15.768 13.304 15.984 12.68 16.176 12.136C16.384 11.592 16.544 11.176 16.656 10.888ZM19.536 13.984C19.312 14.656 19.056 15.408 18.768 16.24C18.496 17.056 18.248 17.888 18.024 18.736H21C20.776 17.872 20.544 17.032 20.304 16.216C20.08 15.384 19.872 14.64 19.68 13.984H19.536Z" fill="white"/>
<path d="M51.3284 13.24C51.555 13.1067 51.895 12.98 52.3484 12.86C52.815 12.74 53.2817 12.68 53.7484 12.68C54.415 12.68 55.0017 12.78 55.5084 12.98C56.0284 13.1667 56.3617 13.4667 56.5084 13.88C56.7484 14.5733 57.0084 15.38 57.2884 16.3C57.5684 17.22 57.8484 18.1733 58.1284 19.16C58.4084 20.1333 58.6817 21.1 58.9484 22.06C59.215 23.0067 59.4484 23.8467 59.6484 24.58C59.4884 24.7667 59.2484 24.9133 58.9284 25.02C58.6084 25.14 58.2284 25.2 57.7884 25.2C57.4684 25.2 57.195 25.1733 56.9684 25.12C56.755 25.0667 56.575 24.9867 56.4284 24.88C56.295 24.7733 56.1817 24.6333 56.0884 24.46C56.0084 24.2867 55.935 24.0867 55.8684 23.86L55.5084 22.48H51.8884C51.7817 22.88 51.675 23.2933 51.5684 23.72C51.4617 24.1467 51.355 24.56 51.2484 24.96C51.0617 25.0267 50.8617 25.08 50.6484 25.12C50.4484 25.1733 50.2017 25.2 49.9084 25.2C49.2284 25.2 48.7217 25.0867 48.3884 24.86C48.0684 24.62 47.9084 24.2933 47.9084 23.88C47.9084 23.6933 47.935 23.5067 47.9884 23.32C48.0417 23.1333 48.1017 22.9133 48.1684 22.66C48.2617 22.3 48.3884 21.8533 48.5484 21.32C48.7217 20.7867 48.9084 20.2133 49.1084 19.6C49.3084 18.9733 49.5217 18.3333 49.7484 17.68C49.975 17.0267 50.1884 16.4133 50.3884 15.84C50.5884 15.2533 50.7684 14.7333 50.9284 14.28C51.1017 13.8267 51.235 13.48 51.3284 13.24ZM53.7284 15.82C53.5417 16.38 53.3284 17.0067 53.0884 17.7C52.8617 18.38 52.655 19.0733 52.4684 19.78H54.9484C54.7617 19.06 54.5684 18.36 54.3684 17.68C54.1817 16.9867 54.0084 16.3667 53.8484 15.82H53.7284ZM72.0674 24.58C71.8808 24.7667 71.6074 24.9067 71.2474 25C70.9008 25.1067 70.4808 25.16 69.9874 25.16C69.4941 25.16 69.0274 25.0867 68.5874 24.94C68.1474 24.7933 67.7874 24.44 67.5074 23.88L65.5274 19.84C65.3274 19.4267 65.1474 19.04 64.9874 18.68C64.8274 18.3067 64.6541 17.88 64.4674 17.4L64.3474 17.42C64.4008 18.14 64.4274 18.8733 64.4274 19.62C64.4408 20.3667 64.4474 21.1 64.4474 21.82V24.92C64.3008 24.96 64.0741 25 63.7674 25.04C63.4741 25.08 63.1808 25.1 62.8874 25.1C62.5941 25.1 62.3341 25.08 62.1074 25.04C61.8808 25 61.6941 24.92 61.5474 24.8C61.4008 24.68 61.2874 24.52 61.2074 24.32C61.1274 24.1067 61.0874 23.8333 61.0874 23.5V13.5C61.2741 13.2333 61.5608 13.0333 61.9474 12.9C62.3341 12.7667 62.7474 12.7 63.1874 12.7C63.6808 12.7 64.1474 12.78 64.5874 12.94C65.0408 13.0867 65.4008 13.4333 65.6674 13.98L67.6674 18.02C67.8674 18.4333 68.0474 18.8267 68.2074 19.2C68.3674 19.56 68.5408 19.98 68.7274 20.46L68.8274 20.44C68.7741 19.72 68.7408 19 68.7274 18.28C68.7141 17.56 68.7074 16.84 68.7074 16.12V12.88C68.8541 12.84 69.0741 12.8 69.3674 12.76C69.6741 12.72 69.9741 12.7 70.2674 12.7C70.8541 12.7 71.3008 12.8067 71.6074 13.02C71.9141 13.22 72.0674 13.6467 72.0674 14.3V24.58ZM73.9016 15.68C73.8083 15.5333 73.7216 15.3333 73.6416 15.08C73.5616 14.8267 73.5216 14.56 73.5216 14.28C73.5216 13.76 73.635 13.3867 73.8616 13.16C74.1016 12.9333 74.4083 12.82 74.7816 12.82H83.5016C83.595 12.9667 83.6816 13.1667 83.7616 13.42C83.8416 13.6733 83.8816 13.94 83.8816 14.22C83.8816 14.74 83.7616 15.1133 83.5216 15.34C83.295 15.5667 82.995 15.68 82.6216 15.68H80.4016V24.92C80.255 24.96 80.0216 25 79.7016 25.04C79.395 25.08 79.0883 25.1 78.7816 25.1C78.475 25.1 78.2016 25.0733 77.9616 25.02C77.735 24.98 77.5416 24.9 77.3816 24.78C77.2216 24.66 77.1016 24.4933 77.0216 24.28C76.9416 24.0667 76.9016 23.7867 76.9016 23.44V15.68H73.9016ZM96.2149 24.92C96.0683 24.96 95.8349 25 95.5149 25.04C95.2083 25.08 94.9016 25.1 94.5949 25.1C94.2883 25.1 94.0149 25.0733 93.7749 25.02C93.5483 24.98 93.3549 24.9 93.1949 24.78C93.0349 24.66 92.9149 24.4933 92.8349 24.28C92.7549 24.0667 92.7149 23.7867 92.7149 23.44V20.32H88.8749V24.92C88.7283 24.96 88.4949 25 88.1749 25.04C87.8683 25.08 87.5616 25.1 87.2549 25.1C86.9483 25.1 86.6749 25.0733 86.4349 25.02C86.2083 24.98 86.0149 24.9 85.8549 24.78C85.6949 24.66 85.5749 24.4933 85.4949 24.28C85.4149 24.0667 85.3749 23.7867 85.3749 23.44V12.88C85.5216 12.8533 85.7549 12.82 86.0749 12.78C86.3949 12.7267 86.7016 12.7 86.9949 12.7C87.3016 12.7 87.5683 12.7267 87.7949 12.78C88.0349 12.82 88.2349 12.9 88.3949 13.02C88.5549 13.14 88.6749 13.3067 88.7549 13.52C88.8349 13.7333 88.8749 14.0133 88.8749 14.36V17.56H92.7149V12.88C92.8616 12.8533 93.0949 12.82 93.4149 12.78C93.7349 12.7267 94.0416 12.7 94.3349 12.7C94.6416 12.7 94.9083 12.7267 95.1349 12.78C95.3749 12.82 95.5749 12.9 95.7349 13.02C95.8949 13.14 96.0149 13.3067 96.0949 13.52C96.1749 13.7333 96.2149 14.0133 96.2149 14.36V24.92ZM98.6124 14.74C98.6124 14.1667 98.7791 13.7133 99.1124 13.38C99.4458 13.0467 99.8991 12.88 100.472 12.88H107.072C107.166 13.0267 107.246 13.22 107.312 13.46C107.392 13.7 107.432 13.9533 107.432 14.22C107.432 14.7267 107.319 15.0867 107.092 15.3C106.879 15.5133 106.592 15.62 106.232 15.62H102.012V17.48H106.512C106.606 17.6267 106.686 17.82 106.752 18.06C106.832 18.2867 106.872 18.5333 106.872 18.8C106.872 19.3067 106.766 19.6667 106.552 19.88C106.339 20.0933 106.052 20.2 105.692 20.2H102.012V22.3H107.152C107.246 22.4467 107.326 22.64 107.392 22.88C107.472 23.12 107.512 23.3733 107.512 23.64C107.512 24.1467 107.399 24.5133 107.172 24.74C106.959 24.9533 106.672 25.06 106.312 25.06H100.472C99.8991 25.06 99.4458 24.8933 99.1124 24.56C98.7791 24.2267 98.6124 23.7733 98.6124 23.2V14.74Z" fill="white"/>
</svg>
