<svg width="73" height="16" viewBox="0 0 73 16" fill="none" xmlns="http://www.w3.org/2000/svg">
<path d="M4.656 0.888C4.928 0.727999 5.336 0.575999 5.88 0.431999C6.44 0.287999 7 0.215999 7.56 0.215999C8.36 0.215999 9.064 0.335999 9.672 0.576C10.296 0.8 10.696 1.16 10.872 1.656C11.16 2.488 11.472 3.456 11.808 4.56C12.144 5.664 12.48 6.808 12.816 7.992C13.152 9.16 13.48 10.32 13.8 11.472C14.12 12.608 14.4 13.616 14.64 14.496C14.448 14.72 14.16 14.896 13.776 15.024C13.392 15.168 12.936 15.24 12.408 15.24C12.024 15.24 11.696 15.208 11.424 15.144C11.168 15.08 10.952 14.984 10.776 14.856C10.616 14.728 10.48 14.56 10.368 14.352C10.272 14.144 10.184 13.904 10.104 13.632L9.672 11.976H5.328C5.2 12.456 5.072 12.952 4.944 13.464C4.816 13.976 4.688 14.472 4.56 14.952C4.336 15.032 4.096 15.096 3.84 15.144C3.6 15.208 3.304 15.24 2.952 15.24C2.136 15.24 1.528 15.104 1.128 14.832C0.744 14.544 0.552 14.152 0.552 13.656C0.552 13.432 0.584 13.208 0.648 12.984C0.712 12.76 0.784 12.496 0.864 12.192C0.976 11.76 1.128 11.224 1.32 10.584C1.528 9.944 1.752 9.256 1.992 8.52C2.232 7.768 2.488 7 2.76 6.216C3.032 5.432 3.288 4.696 3.528 4.008C3.768 3.304 3.984 2.68 4.176 2.136C4.384 1.592 4.544 1.176 4.656 0.888ZM7.536 3.984C7.312 4.656 7.056 5.408 6.768 6.24C6.496 7.056 6.248 7.888 6.024 8.736H9C8.776 7.872 8.544 7.032 8.304 6.216C8.08 5.384 7.872 4.64 7.68 3.984H7.536ZM29.5429 14.496C29.3189 14.72 28.9909 14.888 28.5589 15C28.1429 15.128 27.6389 15.192 27.0469 15.192C26.4549 15.192 25.8949 15.104 25.3669 14.928C24.8389 14.752 24.4069 14.328 24.0709 13.656L21.6949 8.808C21.4549 8.312 21.2389 7.848 21.0469 7.416C20.8549 6.968 20.6469 6.456 20.4229 5.88L20.2789 5.904C20.3429 6.768 20.3749 7.648 20.3749 8.544C20.3909 9.44 20.3989 10.32 20.3989 11.184V14.904C20.2229 14.952 19.9509 15 19.5829 15.048C19.2309 15.096 18.8789 15.12 18.5269 15.12C18.1749 15.12 17.8629 15.096 17.5909 15.048C17.3189 15 17.0949 14.904 16.9189 14.76C16.7429 14.616 16.6069 14.424 16.5109 14.184C16.4149 13.928 16.3669 13.6 16.3669 13.2V1.2C16.5909 0.879999 16.9349 0.639999 17.3989 0.48C17.8629 0.32 18.3589 0.24 18.8869 0.24C19.4789 0.24 20.0389 0.335999 20.5669 0.527999C21.1109 0.704 21.5429 1.12 21.8629 1.776L24.2629 6.624C24.5029 7.12 24.7189 7.592 24.9109 8.04C25.1029 8.472 25.3109 8.976 25.5349 9.552L25.6549 9.528C25.5909 8.664 25.5509 7.8 25.5349 6.936C25.5189 6.072 25.5109 5.208 25.5109 4.344V0.456C25.6869 0.408 25.9509 0.359999 26.3029 0.311999C26.6709 0.263999 27.0309 0.24 27.3829 0.24C28.0869 0.24 28.6229 0.368 28.9909 0.623999C29.3589 0.863999 29.5429 1.376 29.5429 2.16V14.496ZM31.7439 3.816C31.6319 3.64 31.5279 3.4 31.4319 3.096C31.3359 2.792 31.2879 2.472 31.2879 2.136C31.2879 1.512 31.4239 1.064 31.6959 0.792C31.9839 0.52 32.3519 0.383999 32.7999 0.383999H43.2639C43.3759 0.559999 43.4799 0.799999 43.5759 1.104C43.6719 1.408 43.7199 1.728 43.7199 2.064C43.7199 2.688 43.5759 3.136 43.2879 3.408C43.0159 3.68 42.6559 3.816 42.2079 3.816H39.5439V14.904C39.3679 14.952 39.0879 15 38.7039 15.048C38.3359 15.096 37.9679 15.12 37.5999 15.12C37.2319 15.12 36.9039 15.088 36.6159 15.024C36.3439 14.976 36.1119 14.88 35.9199 14.736C35.7279 14.592 35.5839 14.392 35.4879 14.136C35.3919 13.88 35.3439 13.544 35.3439 13.128V3.816H31.7439ZM58.5199 14.904C58.3439 14.952 58.0639 15 57.6799 15.048C57.3119 15.096 56.9439 15.12 56.5759 15.12C56.2079 15.12 55.8799 15.088 55.5919 15.024C55.3199 14.976 55.0879 14.88 54.8959 14.736C54.7039 14.592 54.5599 14.392 54.4639 14.136C54.3679 13.88 54.3199 13.544 54.3199 13.128V9.384H49.7119V14.904C49.5359 14.952 49.2559 15 48.8719 15.048C48.5039 15.096 48.1359 15.12 47.7679 15.12C47.3999 15.12 47.0719 15.088 46.7839 15.024C46.5119 14.976 46.2799 14.88 46.0879 14.736C45.8959 14.592 45.7519 14.392 45.6559 14.136C45.5599 13.88 45.5119 13.544 45.5119 13.128V0.456C45.6879 0.423999 45.9679 0.383999 46.3519 0.336C46.7359 0.272 47.1039 0.24 47.4559 0.24C47.8239 0.24 48.1439 0.272 48.4159 0.336C48.7039 0.383999 48.9439 0.479999 49.1359 0.623999C49.3279 0.767999 49.4719 0.967999 49.5679 1.224C49.6639 1.48 49.7119 1.816 49.7119 2.232V6.072H54.3199V0.456C54.4959 0.423999 54.7759 0.383999 55.1599 0.336C55.5439 0.272 55.9119 0.24 56.2639 0.24C56.6319 0.24 56.9519 0.272 57.2239 0.336C57.5119 0.383999 57.7519 0.479999 57.9439 0.623999C58.1359 0.767999 58.2799 0.967999 58.3759 1.224C58.4719 1.48 58.5199 1.816 58.5199 2.232V14.904ZM61.3969 2.688C61.3969 2 61.5969 1.456 61.9969 1.056C62.3969 0.656 62.9409 0.456 63.6289 0.456H71.5489C71.6609 0.631999 71.7569 0.863999 71.8369 1.152C71.9329 1.44 71.9809 1.744 71.9809 2.064C71.9809 2.672 71.8449 3.104 71.5729 3.36C71.3169 3.616 70.9729 3.744 70.5409 3.744H65.4769V5.976H70.8769C70.9889 6.152 71.0849 6.384 71.1649 6.672C71.2609 6.944 71.3089 7.24 71.3089 7.56C71.3089 8.168 71.1809 8.6 70.9249 8.856C70.6689 9.112 70.3249 9.24 69.8929 9.24H65.4769V11.76H71.6449C71.7569 11.936 71.8529 12.168 71.9329 12.456C72.0289 12.744 72.0769 13.048 72.0769 13.368C72.0769 13.976 71.9409 14.416 71.6689 14.688C71.4129 14.944 71.0689 15.072 70.6369 15.072H63.6289C62.9409 15.072 62.3969 14.872 61.9969 14.472C61.5969 14.072 61.3969 13.528 61.3969 12.84V2.688Z" fill="white"/>
</svg>
