<svg width="13" height="13" viewBox="0 0 13 13" fill="none" xmlns="http://www.w3.org/2000/svg">
<path d="M5.64319 1.09022C6.03185 0.444405 6.96815 0.444405 7.35681 1.09022L8.75025 3.40564C8.88988 3.63766 9.11762 3.80312 9.38143 3.86422L12.0141 4.47396C12.7484 4.64403 13.0378 5.5345 12.5437 6.1037L10.7722 8.14445C10.5946 8.34894 10.5077 8.61667 10.5311 8.88644L10.7647 11.5787C10.8299 12.3296 10.0724 12.88 9.37838 12.5859L6.89009 11.5318C6.64076 11.4261 6.35924 11.4261 6.10991 11.5318L3.62163 12.5859C2.92759 12.88 2.17011 12.3296 2.23528 11.5787L2.46893 8.88644C2.49235 8.61667 2.40535 8.34894 2.22784 8.14445L0.456346 6.1037C-0.0377623 5.5345 0.25157 4.64403 0.985884 4.47396L3.61857 3.86422C3.88238 3.80312 4.11013 3.63765 4.24975 3.40564L5.64319 1.09022Z" fill="#FFB800"/>
</svg>
