<svg width="36" height="36" viewBox="0 0 36 36" fill="none" xmlns="http://www.w3.org/2000/svg">
<g id="play presentation / 24 / Outline">
<path id="Vector" opacity="0.8" d="M31.5001 21H30.0001V6H31.5001C31.8979 6 32.2795 5.84196 32.5608 5.56066C32.8421 5.27936 33.0001 4.89782 33.0001 4.5C33.0001 4.10218 32.8421 3.72064 32.5608 3.43934C32.2795 3.15804 31.8979 3 31.5001 3H4.50012C4.1023 3 3.72077 3.15804 3.43946 3.43934C3.15816 3.72064 3.00012 4.10218 3.00012 4.5C3.00012 4.89782 3.15816 5.27936 3.43946 5.56066C3.72077 5.84196 4.1023 6 4.50012 6H6.00012V21H4.50012C4.1023 21 3.72077 21.158 3.43946 21.4393C3.15816 21.7206 3.00012 22.1022 3.00012 22.5C3.00012 22.8978 3.15816 23.2794 3.43946 23.5607C3.72077 23.842 4.1023 24 4.50012 24H16.5001V25.725L9.67512 30.225C9.39512 30.3983 9.17994 30.659 9.06277 30.9667C8.94561 31.2745 8.93297 31.6122 9.02681 31.9279C9.12065 32.2435 9.31576 32.5195 9.58202 32.7133C9.84829 32.907 10.1709 33.0078 10.5001 33C10.795 33.0034 11.0836 32.9142 11.3251 32.745L16.5001 29.325V31.5C16.5001 31.8978 16.6582 32.2794 16.9395 32.5607C17.2208 32.842 17.6023 33 18.0001 33C18.3979 33 18.7795 32.842 19.0608 32.5607C19.3421 32.2794 19.5001 31.8978 19.5001 31.5V29.325L24.6751 32.745C24.9167 32.9142 25.2052 33.0034 25.5001 33C25.8206 32.9975 26.1318 32.8925 26.3883 32.7002C26.6447 32.508 26.8328 32.2387 26.9251 31.9318C27.0173 31.6249 27.0088 31.2965 26.9009 30.9947C26.7929 30.693 26.5911 30.4337 26.3251 30.255L19.5001 25.755V24H31.5001C31.8979 24 32.2795 23.842 32.5608 23.5607C32.8421 23.2794 33.0001 22.8978 33.0001 22.5C33.0001 22.1022 32.8421 21.7206 32.5608 21.4393C32.2795 21.158 31.8979 21 31.5001 21ZM27.0001 21H9.00012V6H27.0001V21ZM14.4151 18.39C14.8149 18.6262 15.2708 18.7508 15.7351 18.7508C16.1995 18.7508 16.6553 18.6262 17.0551 18.39L21.5551 15.78C21.9398 15.5439 22.2576 15.2131 22.478 14.8192C22.6984 14.4252 22.8141 13.9814 22.8141 13.53C22.8141 13.0786 22.6984 12.6348 22.478 12.2408C22.2576 11.8469 21.9398 11.5161 21.5551 11.28L17.0551 8.67C16.6553 8.4338 16.1995 8.30919 15.7351 8.30919C15.2708 8.30919 14.8149 8.4338 14.4151 8.67C14.0123 8.8971 13.6783 9.22889 13.4486 9.63025C13.2188 10.0316 13.1019 10.4876 13.1101 10.95V16.17C13.1126 16.6222 13.2347 17.0658 13.4638 17.4556C13.693 17.8455 14.0212 18.1679 14.4151 18.39ZM16.1101 11.52L19.5001 13.5L16.0801 15.48L16.1101 11.52Z" fill="#101130"/>
</g>
</svg>
