<svg width="20" height="21" viewBox="0 0 20 21" fill="none" xmlns="http://www.w3.org/2000/svg">
<path fill-rule="evenodd" clip-rule="evenodd" d="M9.99996 19C5.39996 19 1.66663 15.275 1.66663 10.6667C1.66663 6.06671 5.39996 2.33337 9.99996 2.33337C14.6083 2.33337 18.3333 6.06671 18.3333 10.6667C18.3333 15.275 14.6083 19 9.99996 19ZM12.6583 13.7583C12.7583 13.8167 12.8666 13.85 12.9833 13.85C13.1916 13.85 13.4 13.7417 13.5166 13.5417C13.6916 13.25 13.6 12.8667 13.3 12.6833L10.3333 10.9167V7.06668C10.3333 6.71668 10.05 6.44168 9.70829 6.44168C9.36663 6.44168 9.08329 6.71668 9.08329 7.06668V11.275C9.08329 11.4917 9.19996 11.6917 9.39163 11.8083L12.6583 13.7583Z" fill="#3BB77E"/>
</svg>
